<mxfile host="65bd71144e">
    <diagram name="Page-1" id="d9b1e647-80fa-b4a2-5024-87a742678bcc">
        <mxGraphModel dx="835" dy="630" grid="1" gridSize="10" guides="1" tooltips="1" connect="1" arrows="1" fold="1" page="1" pageScale="1" pageWidth="1100" pageHeight="850" background="none" math="0" shadow="0">
            <root>
                <mxCell id="0"/>
                <mxCell id="1" parent="0"/>
                <mxCell id="57fe6abec08f04cb-1" value="Jan" style="shape=step;whiteSpace=wrap;html=1;fontSize=28;fillColor=#0080FF;fontColor=#FFFFFF;strokeColor=none;" parent="1" vertex="1">
                    <mxGeometry x="90" y="180" width="170" height="80" as="geometry"/>
                </mxCell>
                <mxCell id="57fe6abec08f04cb-2" value="Mar" style="shape=step;whiteSpace=wrap;html=1;fontSize=28;fillColor=#0075E8;fontColor=#FFFFFF;strokeColor=none;" parent="1" vertex="1">
                    <mxGeometry x="240" y="180" width="170" height="80" as="geometry"/>
                </mxCell>
                <mxCell id="57fe6abec08f04cb-3" value="May" style="shape=step;whiteSpace=wrap;html=1;fontSize=28;fillColor=#0067CC;fontColor=#FFFFFF;strokeColor=none;" parent="1" vertex="1">
                    <mxGeometry x="390" y="180" width="170" height="80" as="geometry"/>
                </mxCell>
                <mxCell id="57fe6abec08f04cb-4" value="July" style="shape=step;whiteSpace=wrap;html=1;fontSize=28;fillColor=#0062C4;fontColor=#FFFFFF;strokeColor=none;" parent="1" vertex="1">
                    <mxGeometry x="540" y="180" width="170" height="80" as="geometry"/>
                </mxCell>
                <mxCell id="57fe6abec08f04cb-5" value="Sep" style="shape=step;whiteSpace=wrap;html=1;fontSize=28;fillColor=#0059B0;fontColor=#FFFFFF;strokeColor=none;" parent="1" vertex="1">
                    <mxGeometry x="690" y="180" width="170" height="80" as="geometry"/>
                </mxCell>
                <mxCell id="57fe6abec08f04cb-6" value="Nov" style="shape=step;whiteSpace=wrap;html=1;fontSize=28;fillColor=#004D99;fontColor=#FFFFFF;strokeColor=none;" parent="1" vertex="1">
                    <mxGeometry x="840" y="180" width="170" height="80" as="geometry"/>
                </mxCell>
                <mxCell id="57fe6abec08f04cb-7" value="2017" style="text;html=1;strokeColor=none;fillColor=#61BAFF;align=center;verticalAlign=middle;whiteSpace=wrap;fontSize=54;fontStyle=1;fontColor=#004D99;" parent="1" vertex="1">
                    <mxGeometry x="120" y="110" width="860" height="60" as="geometry"/>
                </mxCell>
                <mxCell id="57fe6abec08f04cb-8" value="Lorem ipsum dolor sit amet, consectetur adipisicing elit, sed do eiusmod tempor incididunt ut labore et dolore magna aliqua. Ut enim ad minim veniam, quis nostrud exercitation ullamco laboris nisi ut aliquip ex ea commodo consequat. Duis aute irure dolor in reprehenderit in voluptate velit esse cillum dolore eu fugiat nulla pariatur. Excepteur sint occaecat cupidatat non proident, sunt in culpa qui officia deserunt mollit anim id est laborum.&lt;br&gt;Sed ut perspiciatis unde omnis iste natus error sit voluptatem accusantium doloremque laudantium, totam rem aperiam, eaque ipsa quae ab illo inventore veritatis et quasi architecto beatae vitae dicta sunt explicabo." style="text;spacingTop=-5;fillColor=#ffffff;whiteSpace=wrap;html=1;align=left;fontSize=12;fontFamily=Helvetica;fillColor=none;strokeColor=none;" parent="1" vertex="1">
                    <mxGeometry x="100" y="280" width="140" height="470" as="geometry"/>
                </mxCell>
                <mxCell id="57fe6abec08f04cb-9" value="Lorem ipsum dolor sit amet, consectetur adipisicing elit, sed do eiusmod tempor incididunt ut labore et dolore magna aliqua. Ut enim ad minim veniam, quis nostrud exercitation ullamco laboris nisi ut aliquip ex ea commodo consequat. Duis aute irure dolor in reprehenderit in voluptate velit esse cillum dolore eu fugiat nulla pariatur. Excepteur sint occaecat cupidatat non proident, sunt in culpa qui officia deserunt mollit anim id est laborum.&lt;br&gt;Sed ut perspiciatis unde omnis iste natus error sit voluptatem accusantium doloremque laudantium, totam rem aperiam, eaque ipsa quae ab illo inventore veritatis et quasi architecto beatae vitae dicta sunt explicabo." style="text;spacingTop=-5;fillColor=#ffffff;whiteSpace=wrap;html=1;align=left;fontSize=12;fontFamily=Helvetica;fillColor=none;strokeColor=none;" parent="1" vertex="1">
                    <mxGeometry x="250" y="280" width="140" height="470" as="geometry"/>
                </mxCell>
                <mxCell id="57fe6abec08f04cb-10" value="Lorem ipsum dolor sit amet, consectetur adipisicing elit, sed do eiusmod tempor incididunt ut labore et dolore magna aliqua. Ut enim ad minim veniam, quis nostrud exercitation ullamco laboris nisi ut aliquip ex ea commodo consequat. Duis aute irure dolor in reprehenderit in voluptate velit esse cillum dolore eu fugiat nulla pariatur. Excepteur sint occaecat cupidatat non proident, sunt in culpa qui officia deserunt mollit anim id est laborum.&lt;br&gt;Sed ut perspiciatis unde omnis iste natus error sit voluptatem accusantium doloremque laudantium, totam rem aperiam, eaque ipsa quae ab illo inventore veritatis et quasi architecto beatae vitae dicta sunt explicabo." style="text;spacingTop=-5;fillColor=#ffffff;whiteSpace=wrap;html=1;align=left;fontSize=12;fontFamily=Helvetica;fillColor=none;strokeColor=none;" parent="1" vertex="1">
                    <mxGeometry x="400" y="280" width="140" height="470" as="geometry"/>
                </mxCell>
                <mxCell id="57fe6abec08f04cb-11" value="Lorem ipsum dolor sit amet, consectetur adipisicing elit, sed do eiusmod tempor incididunt ut labore et dolore magna aliqua. Ut enim ad minim veniam, quis nostrud exercitation ullamco laboris nisi ut aliquip ex ea commodo consequat. Duis aute irure dolor in reprehenderit in voluptate velit esse cillum dolore eu fugiat nulla pariatur. Excepteur sint occaecat cupidatat non proident, sunt in culpa qui officia deserunt mollit anim id est laborum.&lt;br&gt;Sed ut perspiciatis unde omnis iste natus error sit voluptatem accusantium doloremque laudantium, totam rem aperiam, eaque ipsa quae ab illo inventore veritatis et quasi architecto beatae vitae dicta sunt explicabo." style="text;spacingTop=-5;fillColor=#ffffff;whiteSpace=wrap;html=1;align=left;fontSize=12;fontFamily=Helvetica;fillColor=none;strokeColor=none;" parent="1" vertex="1">
                    <mxGeometry x="550" y="280" width="140" height="470" as="geometry"/>
                </mxCell>
                <mxCell id="57fe6abec08f04cb-12" value="Lorem ipsum dolor sit amet, consectetur adipisicing elit, sed do eiusmod tempor incididunt ut labore et dolore magna aliqua. Ut enim ad minim veniam, quis nostrud exercitation ullamco laboris nisi ut aliquip ex ea commodo consequat. Duis aute irure dolor in reprehenderit in voluptate velit esse cillum dolore eu fugiat nulla pariatur. Excepteur sint occaecat cupidatat non proident, sunt in culpa qui officia deserunt mollit anim id est laborum.&lt;br&gt;Sed ut perspiciatis unde omnis iste natus error sit voluptatem accusantium doloremque laudantium, totam rem aperiam, eaque ipsa quae ab illo inventore veritatis et quasi architecto beatae vitae dicta sunt explicabo." style="text;spacingTop=-5;fillColor=#ffffff;whiteSpace=wrap;html=1;align=left;fontSize=12;fontFamily=Helvetica;fillColor=none;strokeColor=none;" parent="1" vertex="1">
                    <mxGeometry x="700" y="280" width="140" height="470" as="geometry"/>
                </mxCell>
                <mxCell id="57fe6abec08f04cb-13" value="Lorem ipsum dolor sit amet, consectetur adipisicing elit, sed do eiusmod tempor incididunt ut labore et dolore magna aliqua. Ut enim ad minim veniam, quis nostrud exercitation ullamco laboris nisi ut aliquip ex ea commodo consequat. Duis aute irure dolor in reprehenderit in voluptate velit esse cillum dolore eu fugiat nulla pariatur. Excepteur sint occaecat cupidatat non proident, sunt in culpa qui officia deserunt mollit anim id est laborum.&lt;br&gt;Sed ut perspiciatis unde omnis iste natus error sit voluptatem accusantium doloremque laudantium, totam rem aperiam, eaque ipsa quae ab illo inventore veritatis et quasi architecto beatae vitae dicta sunt explicabo." style="text;spacingTop=-5;fillColor=#ffffff;whiteSpace=wrap;html=1;align=left;fontSize=12;fontFamily=Helvetica;fillColor=none;strokeColor=none;" parent="1" vertex="1">
                    <mxGeometry x="855" y="280" width="140" height="470" as="geometry"/>
                </mxCell>
            </root>
        </mxGraphModel>
    </diagram>
    <diagram id="m7qLS4YwxFlvdObBbgj6" name="Page-2">
        <mxGraphModel dx="1037" dy="836" grid="1" gridSize="10" guides="1" tooltips="1" connect="1" arrows="1" fold="1" page="1" pageScale="1" pageWidth="1100" pageHeight="850" math="0" shadow="0">
            <root>
                <mxCell id="GVo53qWer5bxfP8m3u_F-0"/>
                <mxCell id="GVo53qWer5bxfP8m3u_F-1" parent="GVo53qWer5bxfP8m3u_F-0"/>
                <mxCell id="GVo53qWer5bxfP8m3u_F-2" value="&lt;div&gt;&lt;span&gt;&lt;font style=&quot;font-size: 15px&quot;&gt;STAY&lt;/font&gt;&lt;/span&gt;&lt;/div&gt;&lt;div&gt;&lt;span&gt;&lt;font style=&quot;font-size: 15px&quot;&gt;COMMITTED&lt;/font&gt;&lt;/span&gt;&lt;/div&gt;" style="shape=step;perimeter=stepPerimeter;whiteSpace=wrap;html=1;fixedSize=1;fillColor=#157DB0;fontColor=#ffffff;strokeColor=#006EAF;size=30;fontSize=14;align=center;fontStyle=1" vertex="1" parent="GVo53qWer5bxfP8m3u_F-1">
                    <mxGeometry x="360" y="280" width="180" height="80" as="geometry"/>
                </mxCell>
                <mxCell id="GVo53qWer5bxfP8m3u_F-3" value="When team members lack trust, a state of perpetual ambiguity ensues, in which clear goals and strategies fail to emerge out of group discussion.&amp;nbsp; Staying committed to the team's initiative means creating an atmosphere where conflict is welcomed, not feared, because differing perspectives help to shape a clear goal." style="text;html=1;strokeColor=none;fillColor=none;align=center;verticalAlign=middle;whiteSpace=wrap;rounded=0;fontSize=13;" vertex="1" parent="GVo53qWer5bxfP8m3u_F-1">
                    <mxGeometry x="370" y="370" width="140" height="250" as="geometry"/>
                </mxCell>
                <mxCell id="GVo53qWer5bxfP8m3u_F-6" value="&lt;div&gt;&lt;span&gt;&lt;font style=&quot;font-size: 15px&quot;&gt;CULTURAL&lt;/font&gt;&lt;/span&gt;&lt;/div&gt;&lt;div&gt;&lt;span&gt;&lt;font style=&quot;font-size: 15px&quot;&gt;COHESIVENESS&lt;/font&gt;&lt;/span&gt;&lt;/div&gt;" style="shape=step;perimeter=stepPerimeter;whiteSpace=wrap;html=1;fixedSize=1;fillColor=#1466B8;fontColor=#ffffff;strokeColor=#006EAF;size=30;fontSize=14;align=center;fontStyle=1" vertex="1" parent="GVo53qWer5bxfP8m3u_F-1">
                    <mxGeometry x="520" y="280" width="180" height="80" as="geometry"/>
                </mxCell>
                <mxCell id="GVo53qWer5bxfP8m3u_F-7" value="Diversity in race, gender, stats&amp;nbsp; is positive bc it brings collective insight. Theres needs to also be a shared sense of value. This way differing opinions/backgrounds contribute to one overall goal" style="text;html=1;strokeColor=none;fillColor=none;align=center;verticalAlign=middle;whiteSpace=wrap;rounded=0;fontSize=13;" vertex="1" parent="GVo53qWer5bxfP8m3u_F-1">
                    <mxGeometry x="530" y="380" width="130" height="170" as="geometry"/>
                </mxCell>
                <mxCell id="GVo53qWer5bxfP8m3u_F-8" value="&lt;div&gt;&lt;span&gt;&lt;font style=&quot;font-size: 15px&quot;&gt;REWARD&lt;/font&gt;&lt;/span&gt;&lt;/div&gt;&lt;div&gt;&lt;span&gt;&lt;font style=&quot;font-size: 15px&quot;&gt;EFFORT&lt;/font&gt;&lt;/span&gt;&lt;/div&gt;" style="shape=step;perimeter=stepPerimeter;whiteSpace=wrap;html=1;fixedSize=1;fillColor=#1797E2;fontColor=#ffffff;strokeColor=#006EAF;size=30;fontSize=14;align=center;fontStyle=1" vertex="1" parent="GVo53qWer5bxfP8m3u_F-1">
                    <mxGeometry x="200" y="280" width="180" height="80" as="geometry"/>
                </mxCell>
                <mxCell id="GVo53qWer5bxfP8m3u_F-9" value="Recognition of a job well done makes employees feel values. Positive reinforcement has a lasting impact. And it motivates people to acheive more while building company loyalty" style="text;html=1;strokeColor=none;fillColor=none;align=center;verticalAlign=middle;whiteSpace=wrap;rounded=0;fontSize=13;" vertex="1" parent="GVo53qWer5bxfP8m3u_F-1">
                    <mxGeometry x="210" y="370" width="130" height="180" as="geometry"/>
                </mxCell>
                <mxCell id="GVo53qWer5bxfP8m3u_F-10" value="&lt;div&gt;&lt;span&gt;&lt;font style=&quot;font-size: 15px&quot;&gt;&lt;b&gt;ENGAGE&amp;nbsp;&lt;/b&gt;&lt;/font&gt;&lt;/span&gt;&lt;/div&gt;&lt;div&gt;&lt;span style=&quot;font-size: 15px&quot;&gt;&lt;b&gt;WORKERS&lt;/b&gt;&lt;/span&gt;&lt;/div&gt;" style="shape=step;perimeter=stepPerimeter;whiteSpace=wrap;html=1;fixedSize=1;fillColor=#1ba1e2;fontColor=#ffffff;strokeColor=#006EAF;size=30;fontSize=14;align=center;" vertex="1" parent="GVo53qWer5bxfP8m3u_F-1">
                    <mxGeometry x="40" y="280" width="180" height="80" as="geometry"/>
                </mxCell>
                <mxCell id="GVo53qWer5bxfP8m3u_F-11" value="Instead of alienating, find out how to make employees care about the company's vision. They not only become more enthusiastic and productive, but take more responsibility for their performance" style="text;html=1;strokeColor=none;fillColor=none;align=center;verticalAlign=middle;whiteSpace=wrap;rounded=0;fontSize=13;" vertex="1" parent="GVo53qWer5bxfP8m3u_F-1">
                    <mxGeometry x="50" y="370" width="130" height="170" as="geometry"/>
                </mxCell>
                <mxCell id="GVo53qWer5bxfP8m3u_F-12" value="&lt;div&gt;&lt;span&gt;&lt;font style=&quot;font-size: 15px&quot;&gt;REGULAR&lt;/font&gt;&lt;/span&gt;&lt;/div&gt;&lt;div&gt;&lt;span&gt;&lt;font style=&quot;font-size: 15px&quot;&gt;MEETINGS&lt;/font&gt;&lt;/span&gt;&lt;/div&gt;" style="shape=step;perimeter=stepPerimeter;whiteSpace=wrap;html=1;fixedSize=1;fillColor=#194AD1;fontColor=#ffffff;strokeColor=#006EAF;size=30;fontSize=14;align=center;fontStyle=1" vertex="1" parent="GVo53qWer5bxfP8m3u_F-1">
                    <mxGeometry x="680" y="280" width="180" height="80" as="geometry"/>
                </mxCell>
                <mxCell id="GVo53qWer5bxfP8m3u_F-13" value="Meetings provide the org with regular forum on core values, relaligning principles and giving perspective on business practices" style="text;html=1;strokeColor=none;fillColor=none;align=center;verticalAlign=middle;whiteSpace=wrap;rounded=0;fontSize=13;" vertex="1" parent="GVo53qWer5bxfP8m3u_F-1">
                    <mxGeometry x="690" y="370" width="130" height="140" as="geometry"/>
                </mxCell>
                <mxCell id="GVo53qWer5bxfP8m3u_F-16" value="&lt;div&gt;&lt;span&gt;&lt;font style=&quot;font-size: 15px&quot;&gt;FOCUS TEAM&amp;nbsp;&lt;/font&gt;&lt;/span&gt;&lt;/div&gt;&lt;div&gt;&lt;span&gt;&lt;font style=&quot;font-size: 15px&quot;&gt;EFFORT&lt;/font&gt;&lt;/span&gt;&lt;/div&gt;" style="shape=step;perimeter=stepPerimeter;whiteSpace=wrap;html=1;fixedSize=1;fillColor=#003DB8;fontColor=#ffffff;strokeColor=#001DBC;size=30;fontSize=14;align=center;fontStyle=1" vertex="1" parent="GVo53qWer5bxfP8m3u_F-1">
                    <mxGeometry x="840" y="280" width="180" height="80" as="geometry"/>
                </mxCell>
                <mxCell id="GVo53qWer5bxfP8m3u_F-17" value="It's essential to focus on ongoing team dynamics, to make sure that members don't get distracted by individual activities that lead them off track. Consistent reassessment and realignment of team goals is the way to achieve" style="text;html=1;strokeColor=none;fillColor=none;align=center;verticalAlign=middle;whiteSpace=wrap;rounded=0;fontSize=13;" vertex="1" parent="GVo53qWer5bxfP8m3u_F-1">
                    <mxGeometry x="850" y="370" width="140" height="190" as="geometry"/>
                </mxCell>
                <mxCell id="GVo53qWer5bxfP8m3u_F-22" value="Business Management: Best Practices" style="text;strokeColor=#006EAF;fillColor=#4BC1FB;html=1;fontSize=36;fontStyle=1;verticalAlign=middle;align=center;fontColor=#ffffff;" vertex="1" parent="GVo53qWer5bxfP8m3u_F-1">
                    <mxGeometry x="39" y="200" width="950" height="70" as="geometry"/>
                </mxCell>
            </root>
        </mxGraphModel>
    </diagram>
</mxfile>